<svg width="14" height="14" viewBox="0 0 14 14" fill="none" xmlns="http://www.w3.org/2000/svg">
<g clip-path="url(#clip0_158_1452)">
<path d="M12.0802 2.18544C12.0644 2.16879 12.0477 2.15337 12.0305 2.13857C9.27507 -0.712165 4.7246 -0.713587 1.96787 2.13868C1.95072 2.15345 1.93402 2.16887 1.91829 2.18547C-0.606179 4.84885 -0.671175 9.08255 1.91829 11.8145C1.93467 11.8318 1.9519 11.848 1.96978 11.8633C4.72476 14.7115 9.27225 14.713 12.0287 11.8633C12.0465 11.848 12.0638 11.8318 12.0801 11.8145C14.6222 9.13253 14.6573 4.90441 12.0802 2.18544ZM2.33375 10.1969C1.00185 8.25923 1.01809 5.71704 2.33375 3.80301C3.37273 5.75655 3.41107 8.17129 2.33375 10.1969ZM10.7244 11.2547C8.5914 13.1245 5.41054 13.1275 3.2741 11.2547C4.86586 8.65429 4.87119 5.3544 3.2741 2.7453C5.40701 0.875543 8.58787 0.872426 10.7244 2.7453C9.13258 5.34576 9.12728 8.64559 10.7244 11.2547ZM11.6647 10.1969C10.6286 8.24873 10.5847 5.83363 11.6647 3.80301C12.9859 5.72524 12.9916 8.26639 11.6647 10.1969Z" fill="#1F1F1F"/>
</g>
<defs>
<clipPath id="clip0_158_1452">
<rect width="14" height="14" fill="white"/>
</clipPath>
</defs>
</svg>
