<svg width="12" height="12" viewBox="0 0 12 12" fill="none" xmlns="http://www.w3.org/2000/svg">
<path d="M6.913 9.26088C6.913 9.49566 6.80865 9.74348 6.63909 9.91305C6.46952 10.0826 6.23474 10.1739 5.99996 10.1739C5.76517 10.1739 5.53039 10.0696 5.34778 9.91305C5.17822 9.74348 5.08691 9.5087 5.08691 9.26088C5.08691 9.02609 5.19126 8.79131 5.34778 8.62175C5.51735 8.45218 5.75213 8.34783 5.99996 8.34783C6.23474 8.34783 6.46952 8.45218 6.63909 8.62175C6.80865 8.79131 6.913 9.02609 6.913 9.26088ZM6.63909 5.36088C6.46952 5.19131 6.23474 5.08696 5.99996 5.08696C5.76517 5.08696 5.53039 5.19131 5.34778 5.36088C5.17822 5.53044 5.08691 5.76522 5.08691 6.00001C5.08691 6.23479 5.19126 6.48262 5.34778 6.65218C5.51735 6.82175 5.75213 6.91305 5.99996 6.91305C6.23474 6.91305 6.46952 6.8087 6.63909 6.65218C6.80865 6.48262 6.913 6.24783 6.913 6.00001C6.913 5.76522 6.80865 5.53044 6.63909 5.36088ZM6.63909 2.10001C6.46952 1.93044 6.23474 1.82609 5.99996 1.82609C5.76517 1.82609 5.53039 1.93044 5.34778 2.10001C5.17822 2.26957 5.08691 2.50435 5.08691 2.73914C5.08691 2.97392 5.19126 3.22175 5.34778 3.39131C5.51735 3.56088 5.75213 3.65218 5.99996 3.65218C6.23474 3.65218 6.46952 3.54783 6.63909 3.39131C6.80865 3.22175 6.913 2.98696 6.913 2.73914C6.913 2.50435 6.80865 2.26957 6.63909 2.10001Z" fill="black"/>
</svg>
