<svg width="10" height="10" viewBox="0 0 10 10" fill="none" xmlns="http://www.w3.org/2000/svg">
<g clip-path="url(#clip0_405_369)">
<path d="M8.01983 0H3.81859C3.20833 0 2.71182 0.496509 2.71182 1.10677V1.2426H1.97982C1.36956 1.2426 0.873047 1.73911 0.873047 2.34937V8.89328C0.873047 9.50354 1.36956 10 1.97982 10H6.18106C6.79132 10 7.28778 9.50354 7.28778 8.89328V8.75744H8.01979C8.63005 8.75744 9.12656 8.26093 9.12656 7.65067V1.10677C9.12661 0.496509 8.6301 0 8.01983 0ZM6.57391 8.89328C6.57391 9.10988 6.39766 9.28613 6.18111 9.28613H1.97982C1.76321 9.28613 1.58697 9.10988 1.58697 8.89328V2.34933C1.58697 2.13272 1.76321 1.95648 1.97982 1.95648H6.18106C6.39766 1.95648 6.57386 2.13272 6.57386 2.34933V8.89328H6.57391ZM8.41268 7.65067C8.41268 7.86728 8.23644 8.04352 8.01983 8.04352H7.28783V2.34933C7.28783 1.73907 6.79132 1.24256 6.18111 1.24256H3.42575V1.10672C3.42575 0.890118 3.60199 0.713874 3.81859 0.713874H8.01983C8.23644 0.713874 8.41268 0.890118 8.41268 1.10672V7.65067Z" fill="#1D1D1B"/>
</g>
<defs>
<clipPath id="clip0_405_369">
<rect width="10" height="10" fill="white"/>
</clipPath>
</defs>
</svg>
