<svg width="26" height="26" viewBox="0 0 26 26" fill="none" xmlns="http://www.w3.org/2000/svg">
<rect x="0.5" y="0.5" width="25" height="25" rx="2.5" fill="white" stroke="#DCDCDC"/>
<path fill-rule="evenodd" clip-rule="evenodd" d="M8 10C8 9.72386 8.22386 9.5 8.5 9.5H17.5C17.7761 9.5 18 9.72386 18 10C18 10.2761 17.7761 10.5 17.5 10.5H8.5C8.22386 10.5 8 10.2761 8 10Z" fill="#1F1F1F"/>
<path fill-rule="evenodd" clip-rule="evenodd" d="M12 8.5C11.8674 8.5 11.7402 8.55268 11.6464 8.64645C11.5527 8.74021 11.5 8.86739 11.5 9V9.5H14.5V9C14.5 8.86739 14.4473 8.74021 14.3536 8.64645C14.2598 8.55268 14.1326 8.5 14 8.5H12ZM15.5 9.5V9C15.5 8.60217 15.342 8.22064 15.0607 7.93934C14.7794 7.65804 14.3978 7.5 14 7.5H12C11.6022 7.5 11.2206 7.65804 10.9393 7.93934C10.658 8.22064 10.5 8.60217 10.5 9V9.5H9.5C9.22386 9.5 9 9.72386 9 10V17C9 17.3978 9.15804 17.7794 9.43934 18.0607C9.72064 18.342 10.1022 18.5 10.5 18.5H15.5C15.8978 18.5 16.2794 18.342 16.5607 18.0607C16.842 17.7794 17 17.3978 17 17V10C17 9.72386 16.7761 9.5 16.5 9.5H15.5ZM10 10.5V17C10 17.1326 10.0527 17.2598 10.1464 17.3536C10.2402 17.4473 10.3674 17.5 10.5 17.5H15.5C15.6326 17.5 15.7598 17.4473 15.8536 17.3536C15.9473 17.2598 16 17.1326 16 17V10.5H10Z" fill="#1F1F1F"/>
</svg>
