<svg width="10" height="10" viewBox="0 0 10 10" fill="none" xmlns="http://www.w3.org/2000/svg">
<g clip-path="url(#clip0_158_1456)">
<path d="M8.03029 0H1.96968C1.71865 0 1.51514 0.203515 1.51514 0.454545V9.54545C1.51514 9.72018 1.61529 9.87945 1.77277 9.95515C1.93026 10.0308 2.11717 10.0096 2.25362 9.90039L4.99998 7.70333L7.74635 9.90039C7.82853 9.96615 7.92899 10 8.03035 10C8.09726 10 8.16459 9.98524 8.2272 9.95515C8.38468 9.87948 8.48483 9.72021 8.48483 9.54545V0.454545C8.48483 0.203515 8.28132 0 8.03029 0ZM7.57574 8.5997L5.28392 6.76627C5.20092 6.69988 5.10044 6.66667 4.99998 6.66667C4.89953 6.66667 4.79905 6.69988 4.71605 6.76627L2.42423 8.5997V0.909091H7.57574V8.5997Z" fill="#010002"/>
</g>
<defs>
<clipPath id="clip0_158_1456">
<rect width="10" height="10" fill="white"/>
</clipPath>
</defs>
</svg>
